Coordinates
version=1
nRows=16
nColumns=40
inDegrees=yes

Units are S.I. units (second, meters, Newtons, ...)
Angles are in degrees.

endheader
time	pelvis_tilt	pelvis_list	pelvis_rotation	pelvis_tx	pelvis_ty	pelvis_tz	hip_flexion_r	hip_adduction_r	hip_rotation_r	knee_angle_r	knee_angle_r_beta	ankle_angle_r	subtalar_angle_r	mtp_angle_r	hip_flexion_l	hip_adduction_l	hip_rotation_l	knee_angle_l	knee_angle_l_beta	ankle_angle_l	subtalar_angle_l	mtp_angle_l	lumbar_extension	lumbar_bending	lumbar_rotation	arm_flex_r	arm_add_r	arm_rot_r	elbow_flex_r	pro_sup_r	wrist_flex_r	wrist_dev_r	arm_flex_l	arm_add_l	arm_rot_l	elbow_flex_l	pro_sup_l	wrist_flex_l	wrist_dev_l
     24.89750000	     -2.75586961	     -4.24330467	      0.66993283	      1.12318127	      0.91912436	      0.45918609	     22.76560217	      0.08726777	    -15.85817240	     23.65372475	     23.65372475	      5.40404457	     -7.68900433	     -2.92058640	      2.47452110	    -10.73291333	     -9.36068435	     41.00436141	     41.00436141	      9.70094521	    -16.69896628	    -10.64017109	     -7.64140389	      6.09727168	      1.12384095	     -9.08466029	    -12.71004772	    -20.92251035	     18.71667408	     47.91735953	      0.00000000	      0.00000000	     13.61898335	    -13.71949027	    -11.49675240	     89.97454397	     48.18815760	      0.00000000	      0.00000000
     24.90885714	     -2.86265671	     -4.37358378	      0.72830652	      1.12278470	      0.92086095	      0.46198921	     21.76041454	      0.46975597	    -16.31251792	     22.72973262	     22.72973262	      5.64512022	     -6.86913282	     -3.64964939	      4.85015692	    -11.22406033	     -8.00727083	     45.47910015	     45.47910015	      9.57746318	    -17.31112396	     -4.96952168	     -7.53649951	      6.16946899	      1.16459138	     -7.10956009	    -12.76008798	    -20.18692960	     19.39998685	     47.81560673	      0.00000000	      0.00000000	     12.35833821	    -13.10945213	    -11.98043489	     88.23482061	     48.19945066	      0.00000000	      0.00000000
     24.92021429	     -2.79912403	     -4.62565867	      0.81135315	      1.12222811	      0.92259585	      0.46476761	     20.65043324	      1.03312496	    -16.54812233	     21.92754605	     21.92754605	      6.02734639	     -6.43139156	     -3.72282375	      6.88215101	    -11.97162220	     -7.05294206	     49.27406439	     49.27406439	      7.77674662	    -18.06407897	     -4.27379768	     -7.72356939	      6.34917303	      1.58900900	     -5.15725732	    -12.80261552	    -20.05848493	     20.22928529	     47.78269479	      0.00000000	      0.00000000	     11.28851473	    -12.48710119	    -11.51283721	     87.29206010	     48.14644678	      0.00000000	      0.00000000
     24.93157143	     -2.88421259	     -4.69979262	      1.00400047	      1.12136167	      0.92421414	      0.46698543	     19.57554367	      1.35041535	    -16.98888996	     20.83871688	     20.83871688	      6.09058468	     -5.73988742	     -4.48157643	      9.44372039	    -12.13649810	     -5.47779637	     53.37777150	     53.37777150	      8.56069721	    -18.11335747	      2.83429512	     -7.63265401	      6.42110643	      1.70888302	     -3.38572457	    -12.91067534	    -19.29446078	     21.43543838	     47.64649920	      0.00000000	      0.00000000	     10.54274059	    -12.06581597	    -11.26092284	     84.05026428	     48.07561709	      0.00000000	      0.00000000
     24.94292857	     -2.88875174	     -4.82300001	      1.22664715	      1.12025701	      0.92567253	      0.46903184	     18.51244107	      1.72995984	    -17.29834612	     19.88667883	     19.88667883	      6.14560046	     -5.39297548	     -5.00936509	     11.82776174	    -12.36686432	     -4.11620821	     56.89953146	     56.89953146	      8.66073525	    -18.14137707	      6.92276301	     -7.74639128	      6.52019556	      2.08822995	     -1.63425525	    -13.09194587	    -18.39657261	     22.88055195	     47.48129960	      0.00000000	      0.00000000	      9.76623414	    -11.48806954	    -10.49996718	     81.72980309	     47.98750625	      0.00000000	      0.00000000
     24.95428571	     -2.87442098	     -4.98016150	      1.44909819	      1.11893353	      0.92695293	      0.47108099	     17.55090853	      2.14136102	    -17.51019662	     19.13896457	     19.13896457	      6.38328701	     -5.07381349	     -5.01450062	     14.05010794	    -12.66361457	     -3.01359216	     59.74543505	     59.74543505	      7.64198723	    -18.46974346	      7.18077692	     -7.94882415	      6.57231936	      2.32582442	      0.48027755	    -13.19693133	    -18.25789004	     23.86697507	     47.44161002	      0.00000000	      0.00000000	      8.70964069	    -10.98085687	    -10.02010253	     80.36210040	     47.92480330	      0.00000000	      0.00000000
     24.96564286	     -2.87646437	     -5.07241166	      1.79277810	      1.11750026	      0.92824818	      0.47271089	     16.47249698	      2.48082022	    -17.82021497	     18.10924010	     18.10924010	      6.52114868	     -4.67780780	     -5.15014755	     16.33318325	    -12.73888966	     -1.81702634	     62.21806666	     62.21806666	      7.39708236	    -18.50222501	      8.47383266	     -8.02002622	      6.69915851	      2.02337916	      2.81601989	    -13.23291527	    -17.86381565	     25.19551655	     47.35844317	      0.00000000	      0.00000000	      7.88776252	    -10.86136174	     -9.54444510	     76.85192698	     47.82273311	      0.00000000	      0.00000000
     24.97700000	     -2.87700047	     -5.11823854	      2.11916011	      1.11578412	      0.92929714	      0.47412376	     15.56616817	      2.72480165	    -18.07884284	     17.36071919	     17.36071919	      6.51320339	     -4.52737127	     -5.81930979	     18.67196201	    -12.61995050	     -0.63643504	     64.39797858	     64.39797858	      8.00627242	    -18.45415404	     11.28923268	     -8.14984008	      6.73982694	      2.85960112	      4.27673554	    -13.70357230	    -16.64972833	     26.83336544	     47.15994517	      0.00000000	      0.00000000	      8.30084720	    -10.04614465	     -8.42375756	     72.20978028	     47.66460976	      0.00000000	      0.00000000
     24.98835714	     -2.90017521	     -5.21853486	      2.54598537	      1.11402463	      0.93016220	      0.47539856	     14.69135232	      3.02558048	    -18.35887086	     16.62283894	     16.62283894	      6.72019970	     -4.38778358	     -5.80621587	     20.91802605	    -12.55499497	      0.45950892	     65.89757595	     65.89757595	      7.88169601	    -18.50640411	     11.25951088	     -8.28174261	      6.81648996	      2.54578027	      6.70146649	    -13.76444350	    -16.43386644	     28.17511147	     47.09888260	      0.00000000	      0.00000000	      7.20371194	     -9.80704850	     -7.85101012	     69.85622417	     47.57537932	      0.00000000	      0.00000000
     24.99971429	     -2.82305886	     -5.18757522	      2.91823401	      1.11218946	      0.93113976	      0.47654871	     13.74015050	      3.19290183	    -18.53212412	     15.93517082	     15.93517082	      6.85679461	     -4.30872127	     -6.12653882	     22.92847410	    -12.33214477	      1.28849101	     66.84872827	     66.84872827	      8.17911796	    -18.50691335	     11.87783774	     -8.47974091	      6.76928667	      2.96541488	      8.66300005	    -14.17728418	    -15.43418207	     29.58731649	     46.95464287	      0.00000000	      0.00000000	      7.70628391	     -9.11370865	     -7.00549650	     64.20909516	     47.42263311	      0.00000000	      0.00000000
     25.01107143	     -2.83488908	     -5.23616978	      3.33914477	      1.11026650	      0.93181329	      0.47760687	     12.90644470	      3.44052075	    -18.74728127	     15.25967313	     15.25967313	      7.04352687	     -4.26511007	     -6.13452302	     24.97630889	    -12.16915929	      2.06677158	     67.26364604	     67.26364604	      8.34911314	    -18.52374777	     11.87293743	     -8.63566031	      6.77938394	      2.54747936	     11.13944886	    -14.19757453	    -15.10247101	     31.19151479	     46.87328196	      0.00000000	      0.00000000	      6.81194028	     -8.97406101	     -6.35438391	     61.19794418	     47.31866344	      0.00000000	      0.00000000
     25.02242857	     -2.81175412	     -5.21646828	      3.70942214	      1.10833872	      0.93246897	      0.47856337	     12.07805623	      3.61464545	    -18.86369850	     14.67000629	     14.67000629	      7.21982145	     -4.30802417	     -6.42085204	     26.83495776	    -11.93853676	      2.61631622	     67.11420978	     67.11420978	      8.70048098	    -18.54245382	     12.28455688	     -8.76283792	      6.74096248	      3.22667945	     12.73582884	    -14.86647624	    -13.81985528	     33.16417215	     46.68371547	      0.00000000	      0.00000000	      7.68544652	     -8.18898042	     -5.27723104	     54.86314202	     47.14061396	      0.00000000	      0.00000000
     25.03378571	     -2.77574620	     -5.21672070	      4.09993720	      1.10645018	      0.93299039	      0.47946972	     11.24033677	      3.81687000	    -18.98935029	     14.09377177	     14.09377177	      7.49053393	     -4.31198711	     -6.40312758	     28.52260336	    -11.74404363	      3.03554635	     66.37684486	     66.37684486	      8.92657734	    -18.58604366	     12.34002490	     -8.99204397	      6.69108013	      2.63691823	     15.36906249	    -14.76020736	    -13.57688929	     34.91973758	     46.60824224	      0.00000000	      0.00000000	      6.61845347	     -8.12371409	     -4.76029654	     52.09180567	     47.04888571	      0.00000000	      0.00000000
     25.04514286	     -2.71169039	     -5.15861565	      4.45145830	      1.10460364	      0.93352698	      0.48029822	     10.36595341	      3.96282607	    -19.07654114	     13.51238072	     13.51238072	      7.73674145	     -4.32402532	     -6.41717127	     29.95622519	    -11.51609549	      3.23558597	     65.03607171	     65.03607171	      9.18021948	    -18.64667014	     12.58440679	     -9.21682584	      6.59001872	      2.17919258	     17.90418356	    -14.67968162	    -13.09328154	     36.71902386	     46.51513191	      0.00000000	      0.00000000	      6.07019487	     -7.93035645	     -4.20485141	     48.04773094	     46.94367532	      0.00000000	      0.00000000
     25.05650000	     -2.66307427	     -5.06409761	      4.73784346	      1.10280364	      0.93396321	      0.48107616	      9.52921801	      4.06787629	    -19.09314117	     12.98467698	     12.98467698	      7.99906851	     -4.33639613	     -6.47077880	     31.19117300	    -11.29346883	      3.21747247	     63.15803030	     63.15803030	      9.41188478	    -18.69435850	     12.98980661	     -9.42504001	      6.43818184	      2.01826276	     20.23704975	    -14.75748490	    -12.48752331	     38.57831678	     46.41297330	      0.00000000	      0.00000000	      5.78732392	     -7.57309383	     -3.65971283	     43.63374699	     46.84060824	      0.00000000	      0.00000000
     25.06785714	     -2.71698504	     -5.00944702	      4.97626643	      1.10094347	      0.93408500	      0.48176308	      8.87490364	      4.17679089	    -19.11879119	     12.58281069	     12.58281069	      8.22641077	     -4.36457551	     -6.74651802	     32.38534873	    -11.08581699	      3.11688678	     60.85799554	     60.85799554	      9.72774683	    -18.73787109	     13.82538112	     -9.45821115	      6.35129809	      3.29667949	     21.13719179	    -16.09894358	    -10.79672541	     41.49523717	     46.18588268	      0.00000000	      0.00000000	      7.58073656	     -6.47394094	     -2.91404407	     35.44535451	     46.70150012	      0.00000000	      0.00000000
